<svg xmlns="http://www.w3.org/2000/svg" height="24"
    width="24"
    viewBox="0 0 24 24">
    <path d="m12 24c-.414 0-.75-.336-.75-.75v-5.75c0-.414.336-.75.75-.75s.75.336.75.75v5.75c0 .414-.336.75-.75.75z"/>
    <path d="m16.25 24c-.14 0-.281-.039-.407-.12l-4.25-2.75c-.348-.225-.447-.689-.223-1.037.226-.349.691-.447 1.037-.223l4.25 2.75c.348.225.447.689.223 1.037-.144.222-.385.343-.63.343z"/>
    <path d="m7.75 24c-.246 0-.487-.121-.63-.343-.225-.348-.125-.812.223-1.037l4.25-2.75c.346-.224.812-.126 1.037.223.225.348.125.812-.223 1.037l-4.25 2.75c-.125.081-.267.12-.407.12z"/>
    <path d="m21.75 5.5h-19.5c-1.241 0-2.25-1.009-2.25-2.25s1.009-2.25 2.25-2.25h19.5c1.241 0 2.25 1.009 2.25 2.25s-1.009 2.25-2.25 2.25zm-19.5-3c-.414 0-.75.336-.75.75s.336.75.75.75h19.5c.414 0 .75-.336.75-.75s-.336-.75-.75-.75z"/>
    <path d="m20.5 18h-17c-.965 0-1.75-.785-1.75-1.75v-11.5c0-.414.336-.75.75-.75h19c.414 0 .75.336.75.75v11.5c0 .965-.785 1.75-1.75 1.75zm-17.25-12.5v10.75c0 .138.112.25.25.25h17c.138 0 .25-.112.25-.25v-10.75z"/>
    <path d="m6.75 15c-.195 0-.391-.076-.538-.227-.289-.297-.282-.772.015-1.061l3.818-3.714c.251-.245.638-.282.931-.092l2.301 1.493 3.393-4.126c.263-.319.735-.366 1.056-.103.32.263.366.735.103 1.056l-3.818 4.643c-.242.294-.667.359-.987.153l-2.361-1.532-3.389 3.297c-.147.142-.336.213-.524.213z"/>
</svg>
